<svg xmlns="http://www.w3.org/2000/svg" xmlns:xlink="http://www.w3.org/1999/xlink" width="100" zoomAndPan="magnify" viewBox="0 0 75 74.999997" height="100" preserveAspectRatio="xMidYMid meet" version="1.0"><defs><g/><clipPath id="04bb7f41ee"><path d="M 3.226562 3.226562 L 71.773438 3.226562 L 71.773438 71.773438 L 3.226562 71.773438 Z M 3.226562 3.226562 " clip-rule="nonzero"/></clipPath><clipPath id="1051fb25e8"><path d="M 6.976562 3.226562 L 68.023438 3.226562 C 70.097656 3.226562 71.773438 4.902344 71.773438 6.976562 L 71.773438 68.023438 C 71.773438 70.097656 70.097656 71.773438 68.023438 71.773438 L 6.976562 71.773438 C 4.902344 71.773438 3.226562 70.097656 3.226562 68.023438 L 3.226562 6.976562 C 3.226562 4.902344 4.902344 3.226562 6.976562 3.226562 Z M 6.976562 3.226562 " clip-rule="nonzero"/></clipPath></defs><g clip-path="url(#04bb7f41ee)"><g clip-path="url(#1051fb25e8)"><path fill="#ffd230" d="M 3.226562 3.226562 L 71.773438 3.226562 L 71.773438 71.773438 L 3.226562 71.773438 Z M 3.226562 3.226562 " fill-opacity="1" fill-rule="nonzero"/></g></g><g fill="#ffffff" fill-opacity="1"><g transform="translate(12.939844, 51.372114)"><g><path d="M 1.453125 -2.375 C 1.453125 -4.03125 1.632812 -5.425781 2 -6.5625 C 2.363281 -7.695312 2.953125 -8.734375 3.765625 -9.671875 C 4.585938 -10.609375 5.753906 -11.613281 7.265625 -12.6875 L 11.265625 -15.59375 C 12.359375 -16.363281 13.207031 -17.035156 13.8125 -17.609375 C 14.414062 -18.191406 14.867188 -18.796875 15.171875 -19.421875 C 15.484375 -20.046875 15.640625 -20.765625 15.640625 -21.578125 C 15.640625 -22.796875 15.269531 -23.734375 14.53125 -24.390625 C 13.800781 -25.054688 12.695312 -25.390625 11.21875 -25.390625 C 9.789062 -25.390625 8.523438 -25.050781 7.421875 -24.375 C 6.316406 -23.695312 5.398438 -22.769531 4.671875 -21.59375 L 4.28125 -21.5 L 1.03125 -25.140625 C 2.09375 -26.722656 3.476562 -27.992188 5.1875 -28.953125 C 6.90625 -29.921875 8.988281 -30.40625 11.4375 -30.40625 C 13.6875 -30.40625 15.566406 -30.035156 17.078125 -29.296875 C 18.585938 -28.566406 19.707031 -27.5625 20.4375 -26.28125 C 21.164062 -25 21.53125 -23.53125 21.53125 -21.875 C 21.53125 -20.457031 21.234375 -19.160156 20.640625 -17.984375 C 20.046875 -16.804688 19.222656 -15.71875 18.171875 -14.71875 C 17.117188 -13.726562 15.769531 -12.65625 14.125 -11.5 L 10.578125 -9.03125 C 9.515625 -8.257812 8.769531 -7.578125 8.34375 -6.984375 C 7.925781 -6.390625 7.71875 -5.71875 7.71875 -4.96875 L 21.25 -4.96875 L 21.25 0 L 1.453125 0 Z M 1.453125 -2.375 "/></g></g></g><g fill="#ffffff" fill-opacity="1"><g transform="translate(36.332733, 51.372114)"><g><path d="M 12.859375 0.4375 C 10.484375 0.4375 8.46875 0.0664062 6.8125 -0.671875 C 5.164062 -1.410156 3.925781 -2.460938 3.09375 -3.828125 C 2.257812 -5.203125 1.84375 -6.828125 1.84375 -8.703125 C 1.84375 -10.429688 2.273438 -11.929688 3.140625 -13.203125 C 4.003906 -14.472656 5.257812 -15.472656 6.90625 -16.203125 L 6.90625 -16.625 C 5.726562 -17.351562 4.828125 -18.21875 4.203125 -19.21875 C 3.585938 -20.21875 3.28125 -21.382812 3.28125 -22.71875 C 3.28125 -24.238281 3.648438 -25.578125 4.390625 -26.734375 C 5.140625 -27.898438 6.234375 -28.800781 7.671875 -29.4375 C 9.117188 -30.082031 10.847656 -30.40625 12.859375 -30.40625 C 14.867188 -30.40625 16.59375 -30.082031 18.03125 -29.4375 C 19.46875 -28.800781 20.5625 -27.898438 21.3125 -26.734375 C 22.0625 -25.578125 22.4375 -24.238281 22.4375 -22.71875 C 22.4375 -21.382812 22.117188 -20.21875 21.484375 -19.21875 C 20.859375 -18.226562 19.953125 -17.363281 18.765625 -16.625 L 18.765625 -16.203125 C 20.515625 -15.503906 21.796875 -14.507812 22.609375 -13.21875 C 23.429688 -11.9375 23.84375 -10.429688 23.84375 -8.703125 C 23.84375 -6.828125 23.425781 -5.203125 22.59375 -3.828125 C 21.757812 -2.460938 20.519531 -1.410156 18.875 -0.671875 C 17.238281 0.0664062 15.234375 0.4375 12.859375 0.4375 Z M 12.859375 -18.3125 C 14.046875 -18.3125 14.988281 -18.640625 15.6875 -19.296875 C 16.394531 -19.953125 16.75 -20.863281 16.75 -22.03125 C 16.75 -23.207031 16.394531 -24.128906 15.6875 -24.796875 C 14.988281 -25.460938 14.046875 -25.796875 12.859375 -25.796875 C 11.640625 -25.796875 10.679688 -25.460938 9.984375 -24.796875 C 9.285156 -24.140625 8.9375 -23.21875 8.9375 -22.03125 C 8.9375 -20.851562 9.285156 -19.9375 9.984375 -19.28125 C 10.679688 -18.632812 11.640625 -18.3125 12.859375 -18.3125 Z M 12.859375 -4.609375 C 14.460938 -4.609375 15.703125 -5.007812 16.578125 -5.8125 C 17.453125 -6.613281 17.890625 -7.722656 17.890625 -9.140625 C 17.890625 -10.566406 17.453125 -11.675781 16.578125 -12.46875 C 15.703125 -13.269531 14.460938 -13.671875 12.859375 -13.671875 C 11.242188 -13.671875 10 -13.269531 9.125 -12.46875 C 8.25 -11.675781 7.8125 -10.566406 7.8125 -9.140625 C 7.8125 -7.722656 8.25 -6.613281 9.125 -5.8125 C 10 -5.007812 11.242188 -4.609375 12.859375 -4.609375 Z M 12.859375 -4.609375 "/></g></g></g><g fill="#ffffff" fill-opacity="1"><g transform="translate(10.103907, 62.330886)"><g><path d="M 2.84375 0.09375 C 2.40625 0.09375 2.007812 0.0390625 1.65625 -0.0625 C 1.3125 -0.175781 1.019531 -0.320312 0.78125 -0.5 C 0.550781 -0.6875 0.378906 -0.882812 0.265625 -1.09375 L 0.953125 -1.953125 L 1.0625 -1.953125 C 1.257812 -1.660156 1.503906 -1.425781 1.796875 -1.25 C 2.097656 -1.082031 2.445312 -1 2.84375 -1 C 3.1875 -1 3.441406 -1.070312 3.609375 -1.21875 C 3.785156 -1.363281 3.875 -1.5625 3.875 -1.8125 C 3.875 -1.96875 3.84375 -2.09375 3.78125 -2.1875 C 3.726562 -2.289062 3.640625 -2.378906 3.515625 -2.453125 C 3.390625 -2.535156 3.21875 -2.601562 3 -2.65625 L 2.171875 -2.84375 C 1.585938 -2.96875 1.15625 -3.179688 0.875 -3.484375 C 0.59375 -3.796875 0.453125 -4.195312 0.453125 -4.6875 C 0.453125 -5.050781 0.539062 -5.367188 0.71875 -5.640625 C 0.90625 -5.921875 1.171875 -6.132812 1.515625 -6.28125 C 1.867188 -6.4375 2.285156 -6.515625 2.765625 -6.515625 C 3.253906 -6.515625 3.675781 -6.445312 4.03125 -6.3125 C 4.382812 -6.1875 4.6875 -5.988281 4.9375 -5.71875 L 4.296875 -4.859375 L 4.1875 -4.859375 C 4.007812 -5.046875 3.800781 -5.1875 3.5625 -5.28125 C 3.332031 -5.382812 3.066406 -5.4375 2.765625 -5.4375 C 2.410156 -5.4375 2.144531 -5.375 1.96875 -5.25 C 1.789062 -5.125 1.703125 -4.953125 1.703125 -4.734375 C 1.703125 -4.535156 1.765625 -4.375 1.890625 -4.25 C 2.015625 -4.132812 2.234375 -4.039062 2.546875 -3.96875 L 3.390625 -3.796875 C 4.015625 -3.660156 4.46875 -3.4375 4.75 -3.125 C 5.03125 -2.8125 5.171875 -2.398438 5.171875 -1.890625 C 5.171875 -1.492188 5.082031 -1.144531 4.90625 -0.84375 C 4.738281 -0.550781 4.476562 -0.320312 4.125 -0.15625 C 3.78125 0.0078125 3.351562 0.09375 2.84375 0.09375 Z M 2.84375 0.09375 "/></g></g><g transform="translate(15.623438, 62.330886)"><g><path d="M 3.5 0.09375 C 2.914062 0.09375 2.394531 -0.0234375 1.9375 -0.265625 C 1.488281 -0.503906 1.132812 -0.867188 0.875 -1.359375 C 0.625 -1.859375 0.5 -2.476562 0.5 -3.21875 C 0.5 -3.945312 0.625 -4.554688 0.875 -5.046875 C 1.132812 -5.546875 1.488281 -5.914062 1.9375 -6.15625 C 2.394531 -6.394531 2.914062 -6.515625 3.5 -6.515625 C 4.09375 -6.515625 4.613281 -6.394531 5.0625 -6.15625 C 5.507812 -5.914062 5.859375 -5.546875 6.109375 -5.046875 C 6.359375 -4.554688 6.484375 -3.945312 6.484375 -3.21875 C 6.484375 -2.476562 6.359375 -1.859375 6.109375 -1.359375 C 5.859375 -0.867188 5.507812 -0.503906 5.0625 -0.265625 C 4.613281 -0.0234375 4.09375 0.09375 3.5 0.09375 Z M 3.5 -1.015625 C 4.039062 -1.015625 4.457031 -1.1875 4.75 -1.53125 C 5.039062 -1.882812 5.1875 -2.445312 5.1875 -3.21875 C 5.1875 -3.976562 5.039062 -4.535156 4.75 -4.890625 C 4.457031 -5.242188 4.039062 -5.421875 3.5 -5.421875 C 2.957031 -5.421875 2.539062 -5.242188 2.25 -4.890625 C 1.957031 -4.535156 1.8125 -3.976562 1.8125 -3.21875 C 1.8125 -2.445312 1.957031 -1.882812 2.25 -1.53125 C 2.539062 -1.1875 2.957031 -1.015625 3.5 -1.015625 Z M 3.5 -1.015625 "/></g></g><g transform="translate(22.623926, 62.330886)"><g><path d="M 4.90625 -6.421875 L 4.90625 -5.359375 L 2.109375 -5.359375 L 2.109375 -3.65625 L 4.65625 -3.65625 L 4.65625 -2.609375 L 2.109375 -2.609375 L 2.109375 0 L 0.828125 0 L 0.828125 -6.421875 Z M 4.90625 -6.421875 "/></g></g><g transform="translate(27.818261, 62.330886)"><g><path d="M 5.15625 -6.421875 L 5.15625 -5.359375 L 3.296875 -5.359375 L 3.296875 0 L 2.03125 0 L 2.03125 -5.359375 L 0.171875 -5.359375 L 0.171875 -6.421875 Z M 5.15625 -6.421875 "/></g></g><g transform="translate(33.144433, 62.330886)"><g><path d="M 3.0625 0 L 1.640625 0 L 0.171875 -6.421875 L 1.4375 -6.421875 L 2.40625 -1.90625 L 2.515625 -1.90625 L 3.671875 -6.421875 L 4.765625 -6.421875 L 5.9375 -1.90625 L 6.046875 -1.90625 L 7.015625 -6.421875 L 8.234375 -6.421875 L 6.765625 0 L 5.34375 0 L 4.21875 -4.140625 L 4.125 -4.140625 Z M 3.0625 0 "/></g></g><g transform="translate(41.555565, 62.330886)"><g><path d="M 6.171875 0 L 4.828125 0 L 4.34375 -1.484375 L 1.890625 -1.484375 L 1.40625 0 L 0.09375 0 L 2.3125 -6.421875 L 3.953125 -6.421875 Z M 3.046875 -5.078125 L 2.234375 -2.546875 L 4 -2.546875 L 3.171875 -5.078125 Z M 3.046875 -5.078125 "/></g></g><g transform="translate(47.817771, 62.330886)"><g><path d="M 0.828125 0 L 0.828125 -6.421875 L 3.421875 -6.421875 C 4.078125 -6.421875 4.570312 -6.265625 4.90625 -5.953125 C 5.25 -5.648438 5.421875 -5.234375 5.421875 -4.703125 C 5.421875 -4.304688 5.320312 -3.984375 5.125 -3.734375 C 4.925781 -3.484375 4.632812 -3.296875 4.25 -3.171875 L 4.25 -3.078125 C 4.445312 -2.984375 4.609375 -2.847656 4.734375 -2.671875 C 4.859375 -2.503906 4.976562 -2.253906 5.09375 -1.921875 L 5.734375 0 L 4.421875 0 L 3.796875 -1.921875 C 3.734375 -2.109375 3.660156 -2.253906 3.578125 -2.359375 C 3.492188 -2.472656 3.390625 -2.550781 3.265625 -2.59375 C 3.140625 -2.644531 2.976562 -2.671875 2.78125 -2.671875 L 2.109375 -2.671875 L 2.109375 0 Z M 3.265625 -3.6875 C 3.878906 -3.6875 4.1875 -3.972656 4.1875 -4.546875 C 4.1875 -5.128906 3.878906 -5.421875 3.265625 -5.421875 L 2.109375 -5.421875 L 2.109375 -3.6875 Z M 3.265625 -3.6875 "/></g></g><g transform="translate(53.825095, 62.330886)"><g><path d="M 2.109375 -2.828125 L 2.109375 -1.0625 L 5.171875 -1.0625 L 5.171875 0 L 0.828125 0 L 0.828125 -6.421875 L 5.109375 -6.421875 L 5.109375 -5.359375 L 2.109375 -5.359375 L 2.109375 -3.859375 L 4.71875 -3.859375 L 4.71875 -2.828125 Z M 2.109375 -2.828125 "/></g></g><g transform="translate(59.34902, 62.330886)"><g><path d="M 2.84375 0.09375 C 2.40625 0.09375 2.007812 0.0390625 1.65625 -0.0625 C 1.3125 -0.175781 1.019531 -0.320312 0.78125 -0.5 C 0.550781 -0.6875 0.378906 -0.882812 0.265625 -1.09375 L 0.953125 -1.953125 L 1.0625 -1.953125 C 1.257812 -1.660156 1.503906 -1.425781 1.796875 -1.25 C 2.097656 -1.082031 2.445312 -1 2.84375 -1 C 3.1875 -1 3.441406 -1.070312 3.609375 -1.21875 C 3.785156 -1.363281 3.875 -1.5625 3.875 -1.8125 C 3.875 -1.96875 3.84375 -2.09375 3.78125 -2.1875 C 3.726562 -2.289062 3.640625 -2.378906 3.515625 -2.453125 C 3.390625 -2.535156 3.21875 -2.601562 3 -2.65625 L 2.171875 -2.84375 C 1.585938 -2.96875 1.15625 -3.179688 0.875 -3.484375 C 0.59375 -3.796875 0.453125 -4.195312 0.453125 -4.6875 C 0.453125 -5.050781 0.539062 -5.367188 0.71875 -5.640625 C 0.90625 -5.921875 1.171875 -6.132812 1.515625 -6.28125 C 1.867188 -6.4375 2.285156 -6.515625 2.765625 -6.515625 C 3.253906 -6.515625 3.675781 -6.445312 4.03125 -6.3125 C 4.382812 -6.1875 4.6875 -5.988281 4.9375 -5.71875 L 4.296875 -4.859375 L 4.1875 -4.859375 C 4.007812 -5.046875 3.800781 -5.1875 3.5625 -5.28125 C 3.332031 -5.382812 3.066406 -5.4375 2.765625 -5.4375 C 2.410156 -5.4375 2.144531 -5.375 1.96875 -5.25 C 1.789062 -5.125 1.703125 -4.953125 1.703125 -4.734375 C 1.703125 -4.535156 1.765625 -4.375 1.890625 -4.25 C 2.015625 -4.132812 2.234375 -4.039062 2.546875 -3.96875 L 3.390625 -3.796875 C 4.015625 -3.660156 4.46875 -3.4375 4.75 -3.125 C 5.03125 -2.8125 5.171875 -2.398438 5.171875 -1.890625 C 5.171875 -1.492188 5.082031 -1.144531 4.90625 -0.84375 C 4.738281 -0.550781 4.476562 -0.320312 4.125 -0.15625 C 3.78125 0.0078125 3.351562 0.09375 2.84375 0.09375 Z M 2.84375 0.09375 "/></g></g></g></svg>